<svg width="20" height="20" viewBox="0 0 20 20" fill="none" xmlns="http://www.w3.org/2000/svg">
<path d="M10 20C7.22222 20 4.86111 19.0278 2.91667 17.0833C0.972222 15.1389 0 12.7778 0 10C0 7.22222 0.972222 4.86111 2.91667 2.91667C4.86111 0.972222 7.22222 0 10 0C10.2593 0 10.5141 0.00925936 10.7644 0.0277779C11.0148 0.0462964 11.26 0.074074 11.5 0.111111C10.7407 0.648148 10.1341 1.34741 9.68 2.20889C9.22593 3.07037 8.99926 4.00074 9 5C9 6.66667 9.58333 8.08333 10.75 9.25C11.9167 10.4167 13.3333 11 15 11C16.0185 11 16.9537 10.773 17.8056 10.3189C18.6574 9.86481 19.3519 9.25852 19.8889 8.5C19.9259 8.74074 19.9537 8.98593 19.9722 9.23556C19.9907 9.48519 20 9.74 20 10C20 12.7778 19.0278 15.1389 17.0833 17.0833C15.1389 19.0278 12.7778 20 10 20ZM10 17.7778C11.6296 17.7778 13.0926 17.3285 14.3889 16.43C15.6852 15.5315 16.6296 14.3604 17.2222 12.9167C16.8519 13.0093 16.4815 13.0833 16.1111 13.1389C15.7407 13.1944 15.3704 13.2222 15 13.2222C12.7222 13.2222 10.7822 12.4211 9.18 10.8189C7.57778 9.21667 6.77704 7.27704 6.77778 5C6.77778 4.62963 6.80556 4.25926 6.86111 3.88889C6.91667 3.51852 6.99074 3.14815 7.08333 2.77778C5.63889 3.37037 4.46741 4.31482 3.56889 5.61111C2.67037 6.90741 2.22148 8.37037 2.22222 10C2.22222 12.1481 2.98148 13.9815 4.5 15.5C6.01852 17.0185 7.85185 17.7778 10 17.7778Z" fill="black"/>
</svg>
